<?xml version="1.0" encoding="UTF-8" standalone="no"?>
<svg width="114px" height="57px" viewBox="0 0 114 57" version="1.1" xmlns="http://www.w3.org/2000/svg" xmlns:xlink="http://www.w3.org/1999/xlink" xmlns:sketch="http://www.bohemiancoding.com/sketch/ns">
    <defs></defs>
    <g id="Page-1" stroke="none" stroke-width="1" fill="none" fill-rule="evenodd" sketch:type="MSPage">
        <g id="Artboard-1" sketch:type="MSArtboardGroup">
            <g id="Button" sketch:type="MSLayerGroup" transform="translate(3.000000, 3.000000)" fill="#737373">
                <rect id="Rectangle-1" sketch:type="MSShapeGroup" x="18" y="0" width="15" height="15"></rect>
                <rect id="Rectangle-1-Copy-2" sketch:type="MSShapeGroup" x="0" y="0" width="15" height="15"></rect>
                <rect id="Rectangle-1-Copy" sketch:type="MSShapeGroup" x="36" y="0" width="15" height="15"></rect>
                <rect id="Rectangle-1-Copy-5" sketch:type="MSShapeGroup" x="18" y="18" width="15" height="15"></rect>
                <rect id="Rectangle-1-Copy-3" sketch:type="MSShapeGroup" x="0" y="18" width="15" height="15"></rect>
                <rect id="Rectangle-1-Copy-4" sketch:type="MSShapeGroup" x="36" y="18" width="15" height="15"></rect>
                <rect id="Rectangle-1-Copy-8" sketch:type="MSShapeGroup" x="18" y="36" width="15" height="15"></rect>
                <rect id="Rectangle-1-Copy-6" sketch:type="MSShapeGroup" x="0" y="36" width="15" height="15"></rect>
                <rect id="Rectangle-1-Copy-7" sketch:type="MSShapeGroup" x="36" y="36" width="15" height="15"></rect>
            </g>
            <g id="Dark-Button" sketch:type="MSLayerGroup" transform="translate(60.000000, 3.000000)" fill="#272727">
                <rect id="Rectangle-1-Copy-17" sketch:type="MSShapeGroup" x="18" y="0" width="15" height="15"></rect>
                <rect id="Rectangle-1-Copy-9" sketch:type="MSShapeGroup" x="0" y="0" width="15" height="15"></rect>
                <rect id="Rectangle-1-Copy-10" sketch:type="MSShapeGroup" x="36" y="0" width="15" height="15"></rect>
                <rect id="Rectangle-1-Copy-11" sketch:type="MSShapeGroup" x="18" y="18" width="15" height="15"></rect>
                <rect id="Rectangle-1-Copy-12" sketch:type="MSShapeGroup" x="0" y="18" width="15" height="15"></rect>
                <rect id="Rectangle-1-Copy-13" sketch:type="MSShapeGroup" x="36" y="18" width="15" height="15"></rect>
                <rect id="Rectangle-1-Copy-14" sketch:type="MSShapeGroup" x="18" y="36" width="15" height="15"></rect>
                <rect id="Rectangle-1-Copy-15" sketch:type="MSShapeGroup" x="0" y="36" width="15" height="15"></rect>
                <rect id="Rectangle-1-Copy-16" sketch:type="MSShapeGroup" x="36" y="36" width="15" height="15"></rect>
            </g>
        </g>
    </g>
</svg>
